<?xml version="1.0" encoding="utf-8"?><svg xmlns="http://www.w3.org/2000/svg" width="1755" height="260" xmlns:v="https://vecta.io/nano"><path fill-rule="evenodd" d="M605.565 198c-10.534 0-19.689-2.069-27.464-6.207-7.649-4.139-13.48-9.531-17.493-16.178-3.888-6.771-5.832-13.794-5.832-21.067v-1.505h32.166v1.317c0 4.514 1.631 8.652 4.891 12.415s8.026 5.643 14.296 5.643c5.392 0 9.719-1.38 12.979-4.139s4.891-6.395 4.891-10.91c0-4.013-1.442-7.21-4.326-9.593-2.885-2.508-6.396-4.201-10.534-5.079l-15.049-3.01c-8.778-2.006-16.992-5.768-24.641-11.286s-11.475-14.547-11.475-27.087c0-8.151 1.944-15.174 5.831-21.068 4.013-5.894 9.531-10.408 16.554-13.543S595.344 62 604.248 62c10.158 0 18.936 1.944 26.335 5.831s12.979 8.967 16.741 15.237c3.762 6.145 5.643 12.603 5.643 19.375v.94h-32.166v-.564c0-4.013-1.442-7.713-4.326-11.098-2.759-3.512-7.211-5.267-13.356-5.267-4.765 0-8.59 1.316-11.474 3.95-2.759 2.633-4.138 6.082-4.138 10.346 0 4.138 1.567 7.398 4.702 9.781s6.898 4.013 11.287 4.891l15.236 3.386c9.907 2.132 18.372 6.145 25.394 12.038s10.534 14.485 10.534 25.771c0 8.277-2.132 15.55-6.395 21.82s-10.158 11.098-17.682 14.484c-7.399 3.386-15.738 5.079-25.018 5.079zM374.917 64.445H323V196.12h51.541c11.662 0 21.945-2.571 30.849-7.712 9.029-5.142 16.052-12.666 21.068-22.573s7.524-21.82 7.524-35.74c0-13.669-2.508-25.394-7.524-35.176-4.891-9.907-11.788-17.43-20.692-22.572-8.903-5.267-19.186-7.9-30.849-7.9zm18.622 96.498c-6.019 5.894-14.17 8.841-24.453 8.841h-17.682v-79.38h17.682c10.408 0 18.559 2.947 24.453 8.84 6.02 5.895 9.029 16.178 9.029 30.85s-3.009 24.955-9.029 30.849zm86.295-42.7V90.216h59.441V64.634h-88.973v131.673h88.973v-25.582h-59.441v-29.721h50.036v-22.761h-50.036zm221.905 0V90.216h59.442V64.634h-88.974v131.673h88.974v-25.582h-59.442v-29.721h50.036v-22.761h-50.036zm121.405 31.978h-15.237v46.086h-29.156V64.634h50.036c10.408 0 19.187 2.006 26.335 6.019 7.273 4.013 12.665 9.342 16.177 15.989 3.511 6.52 5.267 13.606 5.267 21.256 0 8.527-2.132 16.239-6.396 23.137-4.264 6.771-10.534 11.85-18.811 15.236l28.216 50.036h-30.661l-25.77-46.086zm-15.237-23.889h16.177c6.772 0 12.478-1.379 17.118-4.138 4.64-2.885 6.96-7.65 6.96-14.296 0-6.396-2.32-10.91-6.96-13.544-4.515-2.759-10.221-4.138-17.118-4.138h-16.177v36.116zm145.857-36.116h34.611V64.634h-98.379v25.582h34.611v106.091h29.157V90.216zm723.946 101.577c7.77 4.138 16.93 6.207 27.46 6.207 9.28 0 17.62-1.693 25.02-5.079 7.52-3.386 13.42-8.214 17.68-14.484s6.4-13.543 6.4-21.82c0-11.286-3.52-19.877-10.54-25.771s-15.49-9.906-25.39-12.038l-15.24-3.386c-4.39-.878-8.15-2.508-11.29-4.891-3.13-2.383-4.7-5.643-4.7-9.781 0-4.264 1.38-7.713 4.14-10.346 2.88-2.634 6.71-3.95 11.47-3.95 6.15 0 10.6 1.755 13.36 5.267 2.88 3.385 4.33 7.085 4.33 11.098v.564h32.16v-.94c0-6.772-1.88-13.23-5.64-19.375-3.76-6.27-9.34-11.35-16.74-15.237S1714.01 62 1703.85 62c-8.9 0-16.86 1.568-23.89 4.703-7.02 3.135-12.54 7.65-16.55 13.543-3.89 5.894-5.83 12.917-5.83 21.068 0 12.54 3.82 21.569 11.47 27.087s15.87 9.28 24.65 11.286l15.04 3.01c4.14.878 7.65 2.571 10.54 5.079 2.88 2.383 4.32 5.58 4.32 9.593 0 4.515-1.63 8.152-4.89 10.91s-7.58 4.139-12.98 4.139c-6.27 0-11.03-1.881-14.29-5.643s-4.89-7.901-4.89-12.415v-1.317h-32.17v1.505c0 7.273 1.95 14.296 5.83 21.067 4.02 6.647 9.85 12.039 17.5 16.178zM1102.56 90.216h34.61V64.634h-98.38v25.582h34.61v106.091h29.16V90.216zm159.09 106.091V64.634h-29.53v54.174h-49.47V64.633h-29.34v131.674h29.34v-54.55h49.47v54.55h29.53zm50.69-106.091v28.027h50.04v22.761h-50.04v29.721h59.45v25.582h-88.98V64.634h88.98v25.582h-59.45zM1433 64.634h-43.64v131.673h28.78v-90.29h.75l30.85 90.29h18.62l30.85-90.29h.75v90.29h28.78V64.634h-43.64l-25.77 74.677h-.56L1433 64.633zm146.44 25.582v28.027h50.04v22.761h-50.04v29.721h59.44v25.582h-88.97V64.634h88.97v25.582h-59.44z" fill="#1d1e20"/><path d="M226 260H34c-18.778 0-34-15.222-34-34V34C0 15.222 15.222 0 34 0h192c18.778 0 34 15.222 34 34v192c0 18.778-15.222 34-34 34Z" fill="#605be5"/><path fill-rule="evenodd" d="M149.988 105.397c0 56.952.104 55.769-5.983 68.266-6.223 12.776-18.742 24.023-32.567 29.261-5.987 2.268-7.3 2.436-19.275 2.467-11.372.029-13.58-.209-19.202-2.069-17.751-5.872-33.413-22.792-38.317-41.393-2.239-8.492-2.034-22.776.443-30.959C43.3 103.839 68.39 86.269 95.935 88.359c8.553.648 18.637 3.672 24.314 7.29 2.254 1.437 4.278 2.612 4.497 2.612s.399-9.876.399-21.948v-21.95h24.843v51.034zm41.977-34.249v16.785h33.41v25.822h-33.544l.281 20.873c.278 20.591.312 20.939 2.591 25.824 2.819 6.045 9.538 13.359 15.03 16.363 2.244 1.228 6.682 2.686 9.861 3.242l5.781 1.012v24.785h-4.443c-6.241 0-14.591-2.215-22.114-5.865-9.184-4.456-21.62-16.886-25.995-25.982-6.2-12.889-6.038-11.175-6.353-67.061l.157-51.429c.34-.89 3.276-1.153 12.89-1.153h12.448v16.784zm-108.85 43.727c-6.575 1.874-12.97 6.048-17.1 11.159-5.45 6.745-7.262 12.169-7.262 21.738 0 7.03.265 8.306 2.8 13.478 8.275 16.891 28.12 24.036 44.62 16.065 5.121-2.474 12.956-10.354 15.425-15.514 10.177-21.267-4.588-46.476-27.937-47.695-3.928-.205-8.234.109-10.547.769z" fill="#fff"/></svg>