<svg width="575" height="256" viewBox="0 0 575 256" fill="none" xmlns="http://www.w3.org/2000/svg">
<path fill-rule="evenodd" clip-rule="evenodd" d="M29 30C29.687 30 30.375 29.625 30.687 29C31.062 28.375 31.062 27.625 30.687 27L24.687 17C24.312 16.375 23.687 16 23 16C22.25 16 21.625 16.375 21.25 17L15.25 27C14.875 27.625 14.875 28.375 15.25 29C15.562 29.625 16.25 30 17 30H29ZM17 28L23 18L29 28H17Z" fill="#E6E8EC"/>
<path fill-rule="evenodd" clip-rule="evenodd" d="M37 35.5C37 34.125 35.875 33 34.5 33H25.5C24.062 33 23 34.125 23 35.5V44.5C23 45.938 24.062 47 25.5 47H34.5C35.875 47 37 45.938 37 44.5V35.5ZM25.5 35H34.5C34.75 35 35 35.25 35 35.5V44.5C35 44.812 34.75 45 34.5 45H25.5C25.187 45 25 44.812 25 44.5V35.5C25 35.25 25.187 35 25.5 35Z" fill="#E6E8EC"/>
<path fill-rule="evenodd" clip-rule="evenodd" d="M13 48C17.375 48 21 44.438 21 40C21 35.625 17.375 32 13 32C8.562 32 5 35.625 5 40C5 44.438 8.562 48 13 48ZM7 40C7 36.688 9.625 34 13 34C16.312 34 19 36.688 19 40C19 43.312 16.312 46 13 46C9.625 46 7 43.312 7 40Z" fill="#E6E8EC"/>
<path d="M113 30.5C112.125 30.5 111.5 31.188 111.5 32C111.5 32.875 112.125 33.5 113 33.5C113.812 33.5 114.5 32.875 114.5 32C114.5 31.188 113.812 30.5 113 30.5Z" fill="#E6E8EC"/>
<path fill-rule="evenodd" clip-rule="evenodd" d="M121.312 26.25C121.812 24.688 120.312 23.188 118.75 23.688L109.625 26.75C108.687 27.062 108 27.75 107.687 28.688L104.625 37.812C104.125 39.375 105.625 40.875 107.187 40.375L116.312 37.312C117.25 37 117.937 36.312 118.25 35.375L121.312 26.25ZM110.25 28.688L119.375 25.625L116.312 34.75C116.25 35.062 116 35.312 115.687 35.375L106.562 38.438L109.625 29.312C109.687 29 109.937 28.75 110.25 28.688Z" fill="#E6E8EC"/>
<path fill-rule="evenodd" clip-rule="evenodd" d="M113 16C104.125 16 97 23.188 97 32C97 40.875 104.125 48 113 48C121.812 48 129 40.875 129 32C129 23.188 121.812 16 113 16ZM127 32C127 39.75 120.687 46 113 46C105.25 46 99 39.75 99 32C99 24.312 105.25 18 113 18C120.687 18 127 24.312 127 32Z" fill="#E6E8EC"/>
<path d="M306 35V31C306 30.5 305.5 30 305 30C304.437 30 304 30.5 304 31V35C304 35.562 304.437 36 305 36C305.5 36 306 35.562 306 35Z" fill="#E6E8EC"/>
<path fill-rule="evenodd" clip-rule="evenodd" d="M295 18C290.562 18 287 21.625 287 26V42C287 44.25 288.75 46 291 46H319C321.187 46 323 44.25 323 42V26C323 21.625 319.375 18 315 18H295ZM293 44H291C289.875 44 289 43.125 289 42V34H293V44ZM293 32H289V26C289 23.438 290.625 21.25 293 20.375V32ZM295 34H299V37C299 38.688 300.312 40 302 40H308C309.625 40 311 38.688 311 37V34H315V44H295V34ZM301 37V29C301 28.5 301.437 28 302 28H308C308.5 28 309 28.5 309 29V37C309 37.562 308.5 38 308 38H302C301.437 38 301 37.562 301 37ZM315 32H311V29C311 27.375 309.625 26 308 26H302C300.312 26 299 27.375 299 29V32H295V20H315V32ZM321 42C321 43.125 320.062 44 319 44H317V34H321V42ZM321 32H317V20.375C319.312 21.25 321 23.438 321 26V32Z" fill="#E6E8EC"/>
<path fill-rule="evenodd" clip-rule="evenodd" d="M209.5 46H195C193.875 46 193 45.125 193 44V20C193 18.9375 193.875 18 195 18H203V25C203 26.6875 204.312 28 206 28H213V29.25C213.625 28.875 214.25 28.625 215 28.4375V26.25C215 25.5 214.625 24.6875 214.062 24.125L206.875 16.9375C206.312 16.375 205.5 16 204.75 16H195C192.75 16 191 17.8125 191 20V44C191 46.25 192.75 48 195 48H211.562C210.812 47.4375 210.062 46.75 209.5 46ZM205.437 18.3125L212.687 25.5625C212.783 25.658 212.842 25.79 212.892 25.9027L212.893 25.9047L212.895 25.9079L212.897 25.9127C212.911 25.9438 212.924 25.9733 212.937 26H206C205.437 26 205 25.5625 205 25V18.0625C205.029 18.0772 205.062 18.0919 205.097 18.1075C205.21 18.1579 205.342 18.217 205.437 18.3125Z" fill="#E6E8EC"/>
<path d="M218 42C217.437 42 217 42.5 217 43C217 43.5625 217.437 44 218 44C218.5 44 219 43.5625 219 43C219 42.5 218.5 42 218 42Z" fill="#E6E8EC"/>
<path d="M216.562 34C215.125 34 214 35.1875 214 36.625V37C214 37.5625 214.437 38 215 38C215.5 38 216 37.5625 216 37V36.625C216 36.3125 216.25 36 216.562 36H219.125C219.562 36 220 36.4375 220 36.875C220 37.25 219.812 37.5 219.5 37.6875L217.5 38.75C217.187 38.875 217 39.25 217 39.625V40C217 40.5625 217.437 41 218 41C218.437 41 218.875 40.6875 218.937 40.25L220.437 39.4375C221.375 38.9375 222 37.9375 222 36.875C222 35.3125 220.687 34 219.125 34H216.562Z" fill="#E6E8EC"/>
<path fill-rule="evenodd" clip-rule="evenodd" d="M218 48C222.937 48 227 44 227 39C227 34.0625 222.937 30 218 30C213 30 209 34.0625 209 39C209 44 213 48 218 48ZM211 39C211 35.1875 214.125 32 218 32C221.812 32 225 35.1875 225 39C225 42.875 221.812 46 218 46C214.125 46 211 42.875 211 39Z" fill="#E6E8EC"/>
<path fill-rule="evenodd" clip-rule="evenodd" d="M496 17C496 16.5 496.437 16 497 16C497.5 16 498 16.5 498 17V18H508.5C508.812 18 509.062 18.1875 509.25 18.375L512.5 22.375C512.75 22.75 512.75 23.3125 512.5 23.625L509.25 27.625C509.062 27.875 508.812 28 508.5 28H498V30H509C510.062 30 511 30.9375 511 32V38C511 39.125 510.062 40 509 40H498V47C498 47.5625 497.5 48 497 48C496.437 48 496 47.5625 496 47V40H485.437C485.125 40 484.875 39.875 484.687 39.625L481.437 35.625C481.187 35.3125 481.187 34.75 481.437 34.375L484.687 30.375C484.875 30.1875 485.125 30 485.437 30H496V28H485C483.875 28 483 27.125 483 26V20C483 18.9375 483.875 18 485 18H496V17ZM508 20H485V26H508L510.437 23L508 20ZM483.5 35L485.937 38H509V32H485.937L483.5 35Z" fill="#E6E8EC"/>
<path d="M398.25 20H392.25C391.687 20 391.25 19.5625 391.25 19C391.25 18.5 391.687 18 392.25 18H398.25C398.75 18 399.25 18.5 399.25 19C399.25 19.5625 398.75 20 398.25 20Z" fill="#E6E8EC"/>
<path d="M410.25 20H404.25C403.687 20 403.25 19.5625 403.25 19C403.25 18.5 403.687 18 404.25 18H410.25C410.75 18 411.25 18.5 411.25 19C411.25 19.5625 410.75 20 410.25 20Z" fill="#E6E8EC"/>
<path fill-rule="evenodd" clip-rule="evenodd" d="M414.976 31.2112C415.988 33.9411 417.086 36.9061 417.187 41.25L417.25 43C417.25 44.6875 415.875 46 414.25 46H406.25C404.562 46 403.25 44.6875 403.25 43V34H399.25V43C399.25 44.6875 397.875 46 396.25 46H388.25C386.562 46 385.25 44.6875 385.25 43V41.25C385.351 36.9061 386.45 33.9411 387.461 31.2112C388.328 28.8743 389.13 26.7096 389.187 24C389.25 22.9375 390.125 22 391.187 22H411.25C412.312 22 413.187 22.9375 413.25 24C413.308 26.7096 414.11 28.8743 414.976 31.2112ZM396.25 44C396.75 44 397.25 43.5625 397.25 43V24H391.187C391.125 27.125 390.25 29.5625 389.375 31.875C388.375 34.5625 387.375 37.3125 387.25 41.3125V43.0625C387.25 43.5625 387.687 44 388.25 44H396.25ZM399.25 32H403.25V24H399.25V32ZM406.25 44H414.25C414.75 44 415.25 43.5625 415.25 43L415.187 41.3125C415.062 37.3125 414.062 34.5625 413.062 31.875C412.187 29.5625 411.312 27.125 411.25 24.0625V24H405.25V43C405.25 43.5625 405.687 44 406.25 44Z" fill="#E6E8EC"/>
<path fill-rule="evenodd" clip-rule="evenodd" d="M151 93H149C147.312 93 146 94.375 146 96C146 97.6875 147.312 99 149 99H151C152.625 99 154 97.6875 154 96C154 94.375 152.625 93 151 93ZM150.938 97H148.938C148.375 97 147.938 96.5625 147.938 96C147.938 95.5 148.375 95 148.938 95H150.938C151.438 95 151.938 95.5 151.938 96C151.938 96.5625 151.5 97 150.938 97Z" fill="#E6E8EC"/>
<path fill-rule="evenodd" clip-rule="evenodd" d="M170.938 86H168.938C165.25 86 161.625 87.0625 158.5 89H137C134.75 89 133 90.8125 133 93V99C133 101.25 134.75 103 137 103H158.562C161.688 104.938 165.312 106 169 106H171C172.062 106 173 105.125 173 104V88C172.938 86.9375 172.062 86 170.938 86ZM165 103.562C163.062 103.125 161.25 102.375 159.625 101.312L159.125 101H136.938C135.875 101 135 100.125 135 99V93C135 91.9375 135.875 91 136.938 91H159.125L159.625 90.75C161.25 89.6875 163.062 88.9375 165 88.5V103.562ZM171 104H169C168.312 104 167.625 104 167 103.938V88.125C167.625 88.0625 168.312 88 169 88H171V104Z" fill="#E6E8EC"/>
<path fill-rule="evenodd" clip-rule="evenodd" d="M45 84V99C45 101.812 47.187 104 50 104H53V108C53 110.25 54.75 112 57 112C59.187 112 61 110.25 61 108V104H64C66.75 104 69 101.812 69 99V84C69 81.8125 67.187 80 65 80H49C46.75 80 45 81.8125 45 84ZM67 99C67 100.688 65.625 102 64 102H59V108C59 109.125 58.062 110 57 110C55.875 110 55 109.125 55 108V102H50C48.312 102 47 100.688 47 99V98H67V99ZM65 82C66.062 82 67 82.9375 67 84V96H47V84C47 82.9375 47.875 82 49 82H51V89C51 89.5625 51.437 90 52 90C52.5 90 53 89.5625 53 89V82H57V87C57 87.5625 57.437 88 58 88C58.5 88 59 87.5625 59 87V82H65Z" fill="#E6E8EC"/>
<path fill-rule="evenodd" clip-rule="evenodd" d="M350.062 97C347.875 97 345.312 97.875 343.5 99.1875C343.411 99.2502 343.324 99.3129 343.236 99.3754C341.844 100.372 340.529 101.312 337 101.312H333C330.75 101.312 329 103.25 329 105.625C329 107.938 330.75 110 333 110H337L340.562 110.938C342.562 111.562 344.625 112 347.312 112C354.187 112 361 108.562 361 103.438C361 99.1875 355.687 97 350.062 97ZM336 108H333C331.937 108 331 106.875 331 105.625C331 104.312 331.875 103.312 333 103.312H336V108ZM341.062 109L338 108.25V103.25C341.437 103.062 343 102 344.437 101C350.125 96.9375 359 99.8125 359 103.438C359 107.312 351.375 112.062 341.062 109Z" fill="#E6E8EC"/>
<path fill-rule="evenodd" clip-rule="evenodd" d="M355.312 80C352.562 80 350.562 80.5 348.562 81.125L345 82H341C338.75 82 337 84.0625 337 86.4375C337 88.875 338.75 90.75 341 90.75H345C348.529 90.75 349.844 91.6908 351.236 92.6871C351.324 92.7496 351.411 92.8123 351.5 92.875C353.312 94.125 355.875 95 358.062 95C363.687 95 369 92.875 369 88.625C369 83.5 362.312 80 355.312 80ZM344 88.75H341C339.875 88.75 339 87.75 339 86.4375C339 85.1875 339.937 84 341 84H344V88.75ZM358.062 93C356.312 93 354.187 92.25 352.687 91.1875C352.601 91.1299 352.514 91.0716 352.427 91.013L352.421 91.0091C350.996 90.0509 349.411 88.9853 346 88.75V83.8125L349.125 83L349.259 82.9643C351.087 82.4765 352.872 82 355.312 82C358.562 82 367 83.625 367 88.625C367 91.5 362.5 93 358.062 93Z" fill="#E6E8EC"/>
<path d="M251 81C251 80.5 250.5 80 250 80H238C237.437 80 237 80.5 237 81C237 81.5625 237.437 82 238 82H250C250.5 82 251 81.5625 251 81Z" fill="#E6E8EC"/>
<path d="M251 85C251 84.5 250.5 84 250 84H238C237.437 84 237 84.5 237 85C237 85.5625 237.437 86 238 86H243V93C243 93.5625 243.437 94 244 94C244.5 94 245 93.5625 245 93V86H250C250.5 86 251 85.5625 251 85Z" fill="#E6E8EC"/>
<path fill-rule="evenodd" clip-rule="evenodd" d="M269 82.25C269 81 267.812 80.0625 266.562 80.3125L258.562 81.875C257.625 82.0625 257 82.875 257 83.875V89.9375C256.375 89.6875 255.687 89.5 255 89.5C252.75 89.5 251 91 251 92.75C251 94.5625 252.75 96 255 96C257.187 96 259 94.5625 259 92.75C259 92.7241 258.989 92.6982 258.977 92.6679C258.959 92.625 258.937 92.5732 258.937 92.5H259V83.875L267 82.25V87.9375C266.375 87.6875 265.687 87.5 265 87.5C262.75 87.5 261 89 261 90.75C261 92.5625 262.75 94 265 94C267.187 94 269 92.5625 269 90.75C269 90.7241 268.989 90.6982 268.977 90.6679C268.959 90.625 268.937 90.5732 268.937 90.5H269V82.25ZM265 89.5C265.625 89.5 266.187 89.75 266.562 90.0625C266.875 90.3125 267 90.5625 267 90.75C267 91 266.875 91.25 266.562 91.5C266.187 91.8125 265.625 92 265 92C264.312 92 263.75 91.8125 263.375 91.5C263.062 91.25 263 91 263 90.75C263 90.5625 263.062 90.3125 263.375 90.0625C263.75 89.75 264.312 89.5 265 89.5ZM255 91.5C255.625 91.5 256.187 91.75 256.562 92.0625C256.875 92.3125 257 92.5625 257 92.75C257 93 256.875 93.25 256.562 93.5C256.187 93.8125 255.625 94 255 94C254.312 94 253.75 93.8125 253.375 93.5C253.062 93.25 253 93 253 92.75C253 92.5625 253.062 92.3125 253.375 92.0625C253.75 91.75 254.312 91.5 255 91.5Z" fill="#E6E8EC"/>
<path fill-rule="evenodd" clip-rule="evenodd" d="M258 98C256.312 98 255 99.375 255 101C255 102.688 256.312 104 258 104C259.625 104 261 102.688 261 101C261 99.375 259.625 98 258 98ZM259 101C259 101.562 258.5 102 258 102C257.437 102 257 101.562 257 101C257 100.5 257.437 100 258 100C258.5 100 259 100.5 259 101Z" fill="#E6E8EC"/>
<path d="M268.687 99.75C269.062 99.375 269.062 98.6875 268.687 98.3125C268.312 97.9375 267.625 97.9375 267.25 98.3125L255.25 110.312C254.875 110.688 254.875 111.375 255.25 111.75C255.625 112.125 256.312 112.125 256.687 111.75L268.687 99.75Z" fill="#E6E8EC"/>
<path fill-rule="evenodd" clip-rule="evenodd" d="M266 112C267.625 112 269 110.688 269 109C269 107.375 267.625 106 266 106C264.312 106 263 107.375 263 109C263 110.688 264.312 112 266 112ZM265 109C265 108.5 265.437 108 266 108C266.5 108 267 108.5 267 109C267 109.562 266.5 110 266 110C265.437 110 265 109.562 265 109Z" fill="#E6E8EC"/>
<path fill-rule="evenodd" clip-rule="evenodd" d="M246 99.75C246 97.6875 244.312 96 242.25 96H241.75C239.687 96 237.937 97.6875 237.937 99.8125C237.937 100.875 238.437 101.875 239.187 102.562L240.187 103.5L238.5 104.812C237.562 105.625 237 106.75 237 108C237 110.188 238.75 112 241 112C241.812 112 242.687 111.75 243.375 111.25L246.312 109.062L249.312 111.75C249.687 112.125 250.312 112.125 250.687 111.688C251.062 111.312 251.062 110.688 250.625 110.312L247.937 107.812L250.562 105.812C251 105.5 251.125 104.875 250.75 104.438C250.437 104 249.812 103.875 249.375 104.25L246.437 106.438L243.312 103.625L244.562 102.625C245.437 101.938 246 100.875 246 99.75ZM242.25 98C243.187 98 244 98.8125 244 99.75C244 100.25 243.75 100.75 243.312 101.062L241.812 102.25L240.562 101.125C240.187 100.75 240 100.312 240 99.8125C240 98.8125 240.75 98 241.75 98H242.25ZM241 110C239.875 110 239 109.125 239 108C239 107.375 239.25 106.812 239.75 106.375L241.687 104.875L244.812 107.688L242.187 109.625C241.812 109.875 241.375 110 241 110Z" fill="#E6E8EC"/>
<path d="M544.938 110C552.625 110 558.938 103.75 558.938 96C558.938 95.5 559.375 95 559.938 95C560.438 95 560.938 95.5 560.938 96C560.938 104.875 553.75 112 544.938 112C536.063 112 528.938 104.875 528.938 96C528.938 87.1875 536.063 80 544.938 80C548.938 80 552.688 81.5625 555.5 84.0625L558.188 81.3125C558.563 80.9375 559.25 80.9375 559.625 81.3125C560 81.6875 560 82.375 559.625 82.75L545.625 96.75C545.25 97.125 544.563 97.125 544.188 96.75C543.813 96.375 543.813 95.6875 544.188 95.3125L546.938 92.5625C546.313 92.25 545.625 92 544.938 92C542.688 92 540.938 93.8125 540.938 96C540.938 98.25 542.688 100 544.938 100C547.125 100 548.938 98.25 548.938 96C548.938 95.5 549.375 95 549.938 95C550.438 95 550.938 95.5 550.938 96C550.938 99.3125 548.25 102 544.938 102C541.563 102 538.938 99.3125 538.938 96C538.938 92.6875 541.563 90 544.938 90C546.188 90 547.375 90.4375 548.375 91.125L550.5 89C549 87.75 547.063 87 544.938 87C541.188 87 538.063 89.25 536.625 92.4375C536.438 92.9375 535.875 93.1875 535.313 92.9375C534.813 92.75 534.625 92.125 534.813 91.625C536.5 87.75 540.375 85 544.938 85C547.563 85 550.063 86 551.938 87.5625L554.063 85.4375C551.625 83.3125 548.438 82 544.938 82C537.188 82 530.938 88.3125 530.938 96C530.938 103.75 537.188 110 544.938 110Z" fill="#E6E8EC"/>
<path d="M554.938 95C555.438 95 555.938 95.5 555.938 96C555.938 100.562 553.188 104.438 549.313 106.125C548.813 106.312 548.188 106.125 548 105.625C547.75 105.062 548 104.5 548.5 104.25C551.688 102.875 553.938 99.6875 553.938 96C553.938 95.5 554.375 95 554.938 95Z" fill="#E6E8EC"/>
<path d="M535.313 99.125C535.875 98.875 536.438 99.125 536.625 99.625C537.563 101.688 539.25 103.375 541.313 104.25C541.813 104.5 542.063 105.062 541.813 105.625C541.625 106.125 541 106.312 540.5 106.125C537.938 105 535.938 102.938 534.813 100.438C534.625 99.9375 534.813 99.3125 535.313 99.125Z" fill="#E6E8EC"/>
<path d="M536.438 96C536.438 96.875 535.75 97.5 534.938 97.5C534.063 97.5 533.438 96.875 533.438 96C533.438 95.1875 534.063 94.5 534.938 94.5C535.75 94.5 536.438 95.1875 536.438 96Z" fill="#E6E8EC"/>
<path d="M543.438 106C543.438 105.188 544.063 104.5 544.938 104.5C545.75 104.5 546.438 105.188 546.438 106C546.438 106.875 545.75 107.5 544.938 107.5C544.063 107.5 543.438 106.875 543.438 106Z" fill="#E6E8EC"/>
<path d="M439.5 92C439.5 91.1875 440.125 90.5 441 90.5C441.812 90.5 442.437 91.1875 442.437 92C442.437 92.875 441.75 93.5 440.937 93.5C440.125 93.5 439.5 92.875 439.5 92Z" fill="#E6E8EC"/>
<path d="M447.5 92C447.5 91.125 448.125 90.5 449 90.5C449.812 90.5 450.5 91.125 450.5 92C450.5 92.8125 449.812 93.5 449 93.5C448.125 93.5 447.5 92.8125 447.5 92Z" fill="#E6E8EC"/>
<path fill-rule="evenodd" clip-rule="evenodd" d="M444.625 80.0625C444.75 80 444.875 80 445 80C451.625 80 457 85.375 456.937 92V109.062C456.937 109.625 456.437 110.062 455.937 110.062C455.687 110.062 455.437 109.938 455.187 109.75L453.625 108.562C453.25 108.25 452.625 108.312 452.312 108.75L449.625 111.75C449.437 111.938 449.125 112 448.937 112C448.687 112 448.437 111.938 448.187 111.75L445.687 108.875C445.5 108.625 445.25 108.562 444.937 108.562C444.687 108.562 444.437 108.625 444.187 108.875L441.687 111.75C441.5 111.938 441.25 112 441 112C440.687 112 440.437 111.938 440.187 111.75L437.5 108.75C437.375 108.5 437.125 108.375 436.813 108.375C436.625 108.375 436.438 108.438 436.25 108.562L434.688 109.75C434.438 109.938 434.188 110 434 110C433.438 110 433 109.625 433 109.062V92.5625C433 85.9375 438.062 80.25 444.625 80.0625ZM454.875 107H455V92C455 86.5 450.5 82 445 82L444.687 82.0625C439.312 82.1875 435 86.875 435 92.5V107H435.062C435.562 106.562 436.188 106.375 436.813 106.375C437.688 106.375 438.5 106.75 439.062 107.375L441 109.5L442.75 107.562C443.312 106.875 444.125 106.562 445 106.562C445.812 106.562 446.625 106.875 447.187 107.562L449 109.5L450.875 107.375C451.437 106.75 452.25 106.375 453.125 106.375C453.75 106.375 454.375 106.562 454.875 107Z" fill="#E6E8EC"/>
<path d="M163 225.5C162.25 225.5 161.75 226.062 161.75 226.75C161.75 227.438 162.25 228 163 228C163.688 228 164.25 227.5 164.25 226.75C164.25 226.062 163.688 225.5 163 225.5Z" fill="#E6E8EC"/>
<path d="M164.375 214H161.312C159.5 214 158 215.562 158 217.375C158 217.938 158.438 218.375 159 218.375C159.5 218.375 160 217.938 160 217.375C160 216.625 160.562 216 161.312 216H164.375C165.25 216 166 216.75 166 217.625C166 218.25 165.625 218.812 165.062 219.125L162.5 220.438C162.188 220.625 162 220.938 162 221.312V223C162 223.562 162.438 224 163 224C163.5 224 164 223.562 164 223V221.938L166 220.875C167.188 220.25 168 219 168 217.625C168 215.625 166.375 214 164.375 214Z" fill="#E6E8EC"/>
<path fill-rule="evenodd" clip-rule="evenodd" d="M175 208H151C148.75 208 147 209.812 147 212V229.938C147 232.25 148.75 234 151 234H157V239.188C157 239.812 157.688 240.125 158.188 239.75L166 234H175C177.188 234 179 232.188 179 230V212C179 209.812 177.188 208 175 208ZM177 230C177 231.125 176.062 232 175 232H165.938C165.5 232 165.125 232.188 164.75 232.438L159 236.75V233C159 232.5 158.5 232 158 232H151C149.875 232 149 231.125 149 230V212C149 210.938 149.875 210 151 210H175C176.062 210 177 210.938 177 212V230Z" fill="#E6E8EC"/>
<path fill-rule="evenodd" clip-rule="evenodd" d="M60.2501 210.041C60.0001 209.979 59.8121 209.979 59.6251 210.104L49.9375 213.979C49.3125 214.166 49 214.729 49 215.354V236.291C49 237.354 50.0625 238.041 51 237.666L60.0001 234.041L73.6871 237.979C73.9371 238.041 74.1251 238.041 74.3121 237.916L84.0001 234.041C84.6251 233.854 85.0001 233.291 85.0001 232.666V211.729C85.0001 210.666 83.8751 209.979 82.9371 210.354L73.9371 213.979L60.2501 210.041ZM59.0001 232.354L51 235.541V215.666L59.0001 212.479V232.354ZM61.0001 212.354L73.0001 215.791V235.666L61.0001 232.229V212.354ZM83.0001 232.354L75.0001 235.541V215.666L83.0001 212.479V232.354Z" fill="#E6E8EC"/>
<path fill-rule="evenodd" clip-rule="evenodd" d="M353.5 224.75L351.062 225.562C350.437 223.812 348.812 222.5 346.812 222.5C344.375 222.5 342.312 224.562 342.312 227C342.312 227.375 342.375 227.688 342.5 228.062L334.562 230.5C334.312 229.812 332.625 225.625 332.312 224.875L349.812 215.875C350.312 215.625 350.437 215.062 350.25 214.562C350 214.062 349.437 213.875 348.937 214.125L331.5 223.062C330.562 223.5 330.125 224.625 330.5 225.562C330.628 225.895 330.986 226.793 331.382 227.785C331.953 229.216 332.602 230.844 332.75 231.25C333.062 232 333.812 232.438 334.562 232.438C334.75 232.438 335 232.375 335.187 232.312L343.437 229.875C343.5 229.938 343.547 230 343.594 230.062C343.641 230.125 343.687 230.188 343.75 230.25L340.937 238.688C340.75 239.25 341.062 239.812 341.562 240H341.875C342.312 240 342.687 239.75 342.812 239.375L345.5 231.312C345.937 231.438 346.437 231.5 346.875 231.5C347.375 231.5 347.812 231.438 348.25 231.312L350.937 239.375C351.062 239.75 351.5 240 351.875 240H352.187C352.75 239.812 353 239.25 352.812 238.688L350 230.25C350.75 229.562 351.187 228.625 351.312 227.625L354.187 226.625C354.687 226.5 355 225.938 354.812 225.375C354.625 224.875 354.062 224.562 353.5 224.75ZM346.875 229.5C345.5 229.5 344.375 228.375 344.375 227C344.375 225.625 345.5 224.5 346.875 224.5C348.25 224.5 349.375 225.625 349.375 227C349.375 228.375 348.25 229.5 346.875 229.5Z" fill="#E6E8EC"/>
<path d="M328.875 228.188C328.687 227.688 328.062 227.438 327.562 227.625C327.062 227.875 326.812 228.438 327.062 228.938L328.187 231.688C328.312 232.062 328.687 232.312 329.125 232.312C329.187 232.312 329.25 232.297 329.312 232.281C329.375 232.266 329.437 232.25 329.5 232.25C330 232 330.25 231.438 330 230.938L328.875 228.188Z" fill="#E6E8EC"/>
<path fill-rule="evenodd" clip-rule="evenodd" d="M366.812 220.688L362.062 209.188C361.687 208.312 360.562 207.75 359.562 208.188L353.062 210.875C352.375 211.125 351.875 211.875 351.875 212.625C351.875 212.875 351.937 213.125 352.062 213.312L356.812 224.875C357.062 225.562 357.812 226 358.562 226C358.75 226 359.062 225.938 359.25 225.875L365.812 223.188C366.5 222.875 367 222.125 367 221.438C367 221.188 366.937 220.938 366.812 220.688ZM358.625 224.062L353.75 212.625L360.125 209.875L364.875 221.312L358.625 224.062Z" fill="#E6E8EC"/>
<path d="M261.151 228.812L261.839 229.5C263.839 231.5 264.964 234.188 264.964 237C264.964 238.688 263.589 240 261.964 240H253.964C253.589 240 253.339 239.875 253.151 239.625C252.964 239.375 252.901 239.062 252.964 238.75L254.964 231.75C255.151 231.25 255.651 230.938 256.214 231.062C256.714 231.25 257.026 231.75 256.901 232.312L255.276 238H261.964C262.464 238 262.964 237.562 262.964 237C262.964 234.688 262.026 232.562 260.401 230.938L259.214 229.75C258.901 229.438 258.839 228.938 259.026 228.562L261.339 224H257.776C256.401 226.375 253.776 228 250.901 228C247.964 228 245.401 226.375 244.026 224H240.526L242.839 228.562C243.026 228.938 242.964 229.438 242.651 229.75L241.464 230.938C239.839 232.562 238.964 234.688 238.964 237C238.964 237.562 239.401 238 239.964 238H246.589L244.964 232.312C244.839 231.75 245.151 231.25 245.651 231.062C246.214 230.938 246.714 231.25 246.901 231.75L248.901 238.75C248.964 239.062 248.901 239.375 248.714 239.625C248.526 239.875 248.276 240 247.964 240H239.964C238.276 240 236.964 238.688 236.964 237C236.964 234.188 238.026 231.5 240.026 229.5L240.714 228.812L238.026 223.5C237.901 223.188 237.901 222.812 238.089 222.5C238.276 222.188 238.589 222 238.964 222H243.214C243.026 221.375 242.964 220.75 242.964 220.062C242.964 219.5 243.401 219 243.964 219C244.464 219 244.964 219.5 244.964 220C244.964 223.312 247.651 226 250.964 226C254.214 226 256.964 223.312 256.964 220C256.964 219.5 257.464 219 257.964 219C258.464 219 258.901 219.5 258.901 220C258.901 220.75 258.839 221.375 258.651 222H262.964C263.276 222 263.589 222.188 263.776 222.5C263.964 222.812 263.964 223.188 263.839 223.5L261.151 228.812Z" fill="#E6E8EC"/>
<path fill-rule="evenodd" clip-rule="evenodd" d="M262.651 215C262.526 215.125 259.526 218 250.964 218C242.339 218 239.339 215.125 239.214 215C238.839 214.625 238.839 213.938 239.214 213.562C239.589 213.188 240.214 213.188 240.651 213.562C240.651 213.625 241.589 214.438 243.776 215.125C244.526 211.688 245.776 208 247.589 208C248.151 208 248.776 208.25 249.339 208.75C250.276 209.562 251.589 209.562 252.526 208.75C253.089 208.25 253.651 208 254.276 208C256.089 208 257.339 211.688 258.089 215.125C260.339 214.438 261.214 213.562 261.214 213.562C261.651 213.188 262.276 213.188 262.651 213.562C263.026 214 263.026 214.625 262.651 215ZM248.026 210.25C247.901 210.188 247.776 210.125 247.714 210.062C247.464 210.375 246.589 211.625 245.776 215.562C247.151 215.812 248.839 216 250.964 216C253.026 216 254.714 215.812 256.089 215.562C255.276 211.75 254.401 210.438 254.089 210.062C254.026 210.125 253.964 210.188 253.839 210.25C252.151 211.75 249.714 211.75 248.026 210.25Z" fill="#E6E8EC"/>
<path d="M252.964 230C253.464 230 253.964 230.5 253.964 231C253.964 231.562 253.464 232 252.964 232H251.964V239C251.964 239.562 251.464 240 250.964 240C250.401 240 249.964 239.562 249.964 239V232H248.964C248.401 232 247.964 231.562 247.964 231C247.964 230.5 248.401 230 248.964 230H252.964Z" fill="#E6E8EC"/>
<path fill-rule="evenodd" clip-rule="evenodd" d="M558.687 238.312L549.812 229.5C551.812 227.188 552.937 224.25 552.937 221C552.937 213.875 547.062 208 539.937 208C532.75 208 527 213.875 527 221C527 228.188 532.812 234 539.937 234C543.125 234 546.062 232.875 548.375 230.875L557.187 239.75C557.437 239.938 557.687 240 558 240C558.25 240 558.5 239.938 558.687 239.75C559.062 239.375 559.062 238.688 558.687 238.312ZM540 232C533.875 232 529 227.062 529 221C529 214.938 533.875 210 540 210C546.062 210 551 214.938 551 221C551 227.125 546.062 232 540 232Z" fill="#E6E8EC"/>
<path d="M452 226C452 226.562 451.5 227 451 227C450.437 227 450 226.562 450 226V223H447C446.437 223 446 222.562 446 222C446 221.5 446.437 221 447 221H450V218C450 217.5 450.437 217 451 217C451.5 217 452 217.5 452 218V221H455C455.5 221 456 221.5 456 222C456 222.562 455.5 223 455 223H452V226Z" fill="#E6E8EC"/>
<path d="M437.5 229.375C437.875 229.812 437.75 230.438 437.375 230.812C436.937 231.125 436.312 231.062 435.937 230.625C434 228.125 433 225.188 433 222C433 214.25 439.187 208 446.937 208C454.687 208 461 214.25 461 222C461 225.188 459.937 228.125 458 230.625C457.812 230.875 457.5 231 457.187 231C457.062 231 456.812 230.938 456.625 230.812C456.187 230.438 456.125 229.812 456.5 229.375C458.125 227.25 459 224.688 459 222C459 215.375 453.625 210 447 210C440.375 210 435 215.375 435 222C435 224.688 435.875 227.25 437.5 229.375Z" fill="#E6E8EC"/>
<path d="M443 219C443 219.562 442.5 220 442 220C441.437 220 441 219.562 441 219V218H440C439.437 218 439 217.562 439 217C439 216.5 439.437 216 440 216H441V215C441 214.5 441.437 214 442 214C442.5 214 443 214.5 443 215V216H444C444.5 216 445 216.5 445 217C445 217.562 444.5 218 444 218H443V219Z" fill="#E6E8EC"/>
<path fill-rule="evenodd" clip-rule="evenodd" d="M455.5 232C455.812 232 456.125 232.188 456.375 232.438L460.375 238.5C460.562 238.75 460.562 239.188 460.375 239.5C460.25 239.812 459.875 240 459.5 240H434.5C434.125 240 433.75 239.812 433.562 239.5C433.437 239.188 433.437 238.812 433.625 238.5L437.625 232.438C437.812 232.188 438.125 232 438.5 232H455.5ZM439 234L436.375 238H457.625L455 234H439Z" fill="#E6E8EC"/>
<path d="M483.5 163.75C483.625 164.312 483.313 164.875 482.75 165C482.25 165.125 481.688 164.812 481.563 164.312C481.188 162.938 481 161.5 481 160C481 151.188 488.125 144 497 144C505.812 144 513 151.188 513 160C513 167.75 507.5 174.25 500.187 175.688C499.625 175.812 499.125 175.438 499 174.938C498.875 174.375 499.25 173.875 499.75 173.75C506.187 172.438 511 166.812 511 160C511 152.312 504.687 146 497 146C489.25 146 483 152.312 483 160C483 161.312 483.125 162.562 483.5 163.75Z" fill="#E6E8EC"/>
<path fill-rule="evenodd" clip-rule="evenodd" d="M500.875 162.625C502 163 502.812 164 502.937 165.125C503.125 166.5 502.375 167.812 501.062 168.312L498.125 169.5L496.625 173.188C495.937 174.938 494.312 176 492.437 176H489.5C487 176 485 174 485 171.5V164C485 162.375 486.313 161 488 161C489.625 161 491 162.375 491 164V165.812L497.062 163.438L492.625 162C492.125 161.812 491.875 161.25 492 160.688C492.187 160.188 492.75 159.875 493.312 160.062L500.875 162.625ZM500.875 165.188C500.687 164.625 500.125 164.375 499.625 164.625L490.312 168.25C490 168.375 489.688 168.312 489.375 168.125C489.125 167.938 489 167.625 489 167.312V164C489 163.5 488.5 163 488 163C487.438 163 487 163.5 487 164V171.5C487 172.938 488.063 174 489.5 174H492.437C493.5 174 494.375 173.375 494.75 172.438L496.375 168.375H496.437C496.5 168.062 496.75 167.875 497 167.75L500.312 166.438C500.75 166.312 501 165.938 501 165.5C501 165.5 500.937 165.5 500.937 165.438C500.937 165.375 500.937 165.25 500.875 165.188Z" fill="#E6E8EC"/>
<path d="M493.5 156C493.5 156.875 492.812 157.5 492 157.5C491.187 157.5 490.5 156.875 490.5 156C490.5 155.188 491.187 154.5 492 154.5C492.812 154.5 493.5 155.188 493.5 156Z" fill="#E6E8EC"/>
<path d="M500.5 157C500.5 156.188 501.187 155.5 502 155.5C502.812 155.5 503.5 156.188 503.5 157C503.5 157.875 502.812 158.5 502 158.5C501.187 158.5 500.5 157.875 500.5 157Z" fill="#E6E8EC"/>
<path d="M494.5 153.062C493.187 152 491.375 151.812 489.875 152.625L489.438 152.875C489 153.188 488.375 153 488.125 152.5C487.813 152.062 488 151.438 488.5 151.188L488.938 150.938C491.125 149.625 493.875 149.938 495.812 151.562L496.625 152.25C497.062 152.625 497.062 153.25 496.75 153.688C496.375 154.125 495.75 154.125 495.312 153.812L494.5 153.062Z" fill="#E6E8EC"/>
<path d="M202.875 153.729C201.312 153.729 199.937 154.854 199.5 156.354V156.417C199.375 156.917 199.687 157.479 200.187 157.604C200.75 157.791 201.312 157.479 201.437 156.917V156.854C201.625 156.229 202.187 155.729 202.875 155.729H206.5C207.562 155.729 208.5 156.667 208.5 157.791C208.5 158.541 208.062 159.229 207.375 159.541L204.5 161.041C204.187 161.167 204 161.541 204 161.917V163.729C204 164.291 204.437 164.729 205 164.729C205.5 164.729 206 164.291 206 163.729V162.541L208.312 161.354C209.625 160.667 210.5 159.291 210.5 157.791C210.5 155.541 208.687 153.729 206.5 153.729H202.875Z" fill="#E6E8EC"/>
<path d="M205 169.229C205.812 169.229 206.5 168.604 206.5 167.729C206.5 166.917 205.812 166.229 205 166.229C204.125 166.229 203.5 166.917 203.5 167.729C203.5 168.604 204.125 169.229 205 169.229Z" fill="#E6E8EC"/>
<path fill-rule="evenodd" clip-rule="evenodd" d="M211 150.417C209 147.604 205.687 145.729 202 145.729C196.062 145.729 191.25 150.417 191 156.291C187.5 157.479 185 160.854 185 164.729C185 169.729 189 173.729 194 173.729H217C221.375 173.729 225 170.167 225 165.729C225 162.667 223.25 160.041 220.687 158.667C220.875 158.041 221 157.417 221 156.729C221 152.917 217.812 149.729 214 149.729C212.875 149.729 211.875 149.979 211 150.417ZM193 156.354C193.187 151.541 197.125 147.729 202 147.729C205 147.729 207.687 149.291 209.312 151.604C209.875 152.354 210.937 152.667 211.812 152.229C212.5 151.917 213.187 151.729 214 151.729C216.75 151.729 219 153.979 219 156.729C219 157.229 218.875 157.667 218.75 158.104C218.5 159.041 218.937 159.979 219.75 160.479C221.687 161.479 223 163.479 223 165.729C223 169.041 220.312 171.729 217 171.729H194C190.125 171.729 187 168.604 187 164.729C187 161.729 188.938 159.104 191.625 158.167C192.437 157.854 192.937 157.167 193 156.354Z" fill="#E6E8EC"/>
<path fill-rule="evenodd" clip-rule="evenodd" d="M122.562 144.041C123.812 143.791 125 144.729 125 145.979V154.229H124.937C124.937 154.302 124.959 154.354 124.977 154.397C124.983 154.412 124.988 154.425 124.993 154.439C124.995 154.445 124.996 154.451 124.998 154.458C124.999 154.462 124.999 154.467 125 154.471V154.479C125 156.291 123.187 157.729 121 157.729C118.75 157.729 117 156.291 117 154.479C117 152.729 118.75 151.229 121 151.229C121.687 151.229 122.375 151.417 123 151.667V145.979L115 147.604V156.229H114.937C114.937 156.302 114.959 156.354 114.977 156.397C114.989 156.427 115 156.453 115 156.479C115 158.291 113.187 159.729 111 159.729C108.75 159.729 107 158.291 107 156.479C107 154.729 108.75 153.229 111 153.229C111.687 153.229 112.375 153.417 113 153.667V147.604C113 146.604 113.625 145.791 114.562 145.604L122.562 144.041ZM122.562 153.791C122.187 153.479 121.625 153.229 121 153.229C120.312 153.229 119.75 153.479 119.375 153.791C119.062 154.041 119 154.291 119 154.479C119 154.729 119.062 154.979 119.375 155.229C119.75 155.541 120.312 155.729 121 155.729C121.625 155.729 122.187 155.541 122.562 155.229C122.875 154.979 123 154.729 123 154.479C123 154.291 122.875 154.041 122.562 153.791ZM112.562 155.791C112.187 155.479 111.625 155.229 111 155.229C110.312 155.229 109.75 155.479 109.375 155.791C109.062 156.041 109 156.291 109 156.479C109 156.729 109.062 156.979 109.375 157.229C109.75 157.541 110.312 157.729 111 157.729C111.625 157.729 112.187 157.541 112.562 157.229C112.875 156.979 113 156.729 113 156.479C113 156.291 112.875 156.041 112.562 155.791Z" fill="#E6E8EC"/>
<path fill-rule="evenodd" clip-rule="evenodd" d="M96.687 144.167C98.125 143.917 99.562 144.354 100.562 145.354L101 145.729L101.312 145.417C102.375 144.354 103.812 143.917 105.25 144.167C107.375 144.479 109 146.354 109 148.541V148.729C109 150.041 108.437 151.229 107.5 152.167L101.812 157.417C101.625 157.604 101.312 157.729 101 157.729C100.625 157.729 100.312 157.604 100.125 157.417L94.437 152.167C93.5 151.229 93 150.041 93 148.729V148.541C93 146.354 94.562 144.479 96.687 144.167ZM99.187 146.791C98.625 146.229 97.812 145.979 97 146.104C95.812 146.291 95 147.354 95 148.541V148.729C95 149.479 95.25 150.167 95.812 150.667L101 155.479L106.125 150.667C106.687 150.167 107 149.479 107 148.729V148.541C107 147.354 106.125 146.291 104.937 146.104C104.125 145.979 103.312 146.229 102.75 146.791L101 148.604L99.187 146.791Z" fill="#E6E8EC"/>
<path fill-rule="evenodd" clip-rule="evenodd" d="M106 168.229C106 170.479 104.187 172.229 102 172.229C99.75 172.229 98 170.479 98 168.229C98 166.041 99.75 164.229 102 164.229C104.187 164.229 106 166.041 106 168.229ZM102 170.229C103.062 170.229 104 169.354 104 168.229C104 167.167 103.062 166.229 102 166.229C100.875 166.229 100 167.167 100 168.229C100 169.354 100.875 170.229 102 170.229Z" fill="#E6E8EC"/>
<path fill-rule="evenodd" clip-rule="evenodd" d="M106 160.854L106.5 161.729H108C109.625 161.729 111 163.104 111 164.729V172.729C111 174.417 109.625 175.729 108 175.729H96C94.312 175.729 93 174.417 93 172.729V164.729C93 163.104 94.312 161.729 96 161.729H97.437L97.937 160.854C98.25 160.167 98.937 159.729 99.687 159.729H104.25C105 159.729 105.687 160.167 106 160.854ZM96 163.729C95.437 163.729 95 164.229 95 164.729V172.729C95 173.291 95.437 173.729 96 173.729H108C108.5 173.729 109 173.291 109 172.729V164.729C109 164.229 108.5 163.729 108 163.729H105.25L104.25 161.729H99.687L98.687 163.729H96Z" fill="#E6E8EC"/>
<path d="M117.375 166.729H123C123.375 166.729 123.75 166.979 123.875 167.354C124.062 167.729 123.937 168.167 123.687 168.479L116.687 175.479C116.312 175.854 115.625 175.854 115.25 175.479C114.875 175.104 114.875 174.417 115.25 174.041L120.562 168.729H115C114.562 168.729 114.187 168.541 114.062 168.167C113.875 167.791 114 167.354 114.25 167.041L121.25 160.041C121.625 159.667 122.312 159.667 122.687 160.041C123.062 160.417 123.062 161.104 122.687 161.479L117.375 166.729Z" fill="#E6E8EC"/>
<path d="M404.5 161C404.5 161.875 403.812 162.5 403 162.5C402.125 162.5 401.5 161.875 401.5 161C401.5 160.188 402.125 159.5 403 159.5C403.812 159.5 404.5 160.188 404.5 161Z" fill="#E6E8EC"/>
<path d="M396.5 161C396.5 161.875 395.812 162.5 395 162.5C394.125 162.5 393.5 161.875 393.5 161C393.5 160.188 394.125 159.5 395 159.5C395.812 159.5 396.5 160.188 396.5 161Z" fill="#E6E8EC"/>
<path fill-rule="evenodd" clip-rule="evenodd" d="M392.187 166.438C392.375 166.188 392.625 166 393 166H405C405.312 166 405.562 166.188 405.75 166.438C405.937 166.688 406 167 405.937 167.312C405.125 170 401.625 172 399 172C396.312 172 392.812 170 392 167.312C391.937 167 392 166.688 392.187 166.438ZM394.687 168C395.75 169.125 397.5 170 399 170C400.437 170 402.187 169.125 403.25 168H394.687Z" fill="#E6E8EC"/>
<path fill-rule="evenodd" clip-rule="evenodd" d="M413.187 163.188C413.187 164.125 412.937 165 412.5 165.812C414 166.812 415 168.5 415 170.438C415 173.5 412.437 176 409.375 176H388.562C385.5 176 383 173.5 383 170.438C383 168.5 383.937 166.812 385.437 165.812C385 165 384.75 164.125 384.75 163.188C384.75 160.75 386.375 158.625 388.625 157.875C388.437 157.438 388.375 156.938 388.375 156.438C388.375 153.562 390.687 151.25 393.562 151.25H394.437C396.125 151.25 397.437 149.938 397.437 148.25C397.437 147.812 397.312 147.375 397.125 146.938C396.812 146.312 396.812 145.625 397.187 145C397.5 144.438 398.125 144.062 398.812 144.062C398.844 144.062 398.875 144.047 398.906 144.031C398.937 144.016 398.969 144 399 144C402.812 144 405.937 147.125 405.937 151C405.937 151.125 405.937 151.312 405.875 151.5C408 152.125 409.562 154.125 409.562 156.438C409.562 156.938 409.5 157.438 409.312 157.875C411.562 158.625 413.187 160.75 413.187 163.188ZM388.562 174H409.375C411.375 174 413 172.438 413 170.438C413 168.625 411.687 167.188 409.937 166.875C409.562 166.812 409.375 166.312 409.75 166.062C410.625 165.375 411.187 164.312 411.187 163.188C411.187 161.188 409.562 159.562 407.562 159.562H406.75C406.312 159.562 406.125 159.062 406.437 158.75C407.187 158.188 407.562 157.312 407.562 156.438C407.562 154.688 406.125 153.25 404.375 153.25C403.625 153.25 403.5 152.938 403.625 152.625C403.812 152.062 403.937 151.5 403.937 151C403.937 148.125 401.5 145.938 398.875 146C399.25 146.75 399.437 147.5 399.437 148.25C399.437 151 397.125 153.25 394.437 153.25H393.562C391.812 153.25 390.375 154.688 390.375 156.438C390.375 157.312 390.75 158.188 391.5 158.75C391.812 159.062 391.625 159.625 391.187 159.625H390.375C388.375 159.625 386.75 161.188 386.75 163.188C386.75 164.312 387.312 165.375 388.187 166.062C388.562 166.312 388.437 166.812 388 166.875C386.25 167.188 385 168.688 385 170.438C385 172.438 386.562 174 388.562 174Z" fill="#E6E8EC"/>
<path d="M301 154C299.875 154 299 154.938 299 156V156.5C299 157.062 298.5 157.5 298 157.5C297.437 157.5 297 157.062 297 156.5V156C297 153.812 298.75 152 301 152H305C307.187 152 309 153.812 309 156V156.312C309 157.75 308.25 159.062 307 159.75L304 161.625V162.5C304 163.062 303.5 163.5 303 163.5C302.437 163.5 302 163.062 302 162.5V161C302 160.688 302.125 160.375 302.437 160.188L306 158.062C306.625 157.688 306.937 157.062 306.937 156.312V156C306.937 154.938 306.062 154 304.937 154H301Z" fill="#E6E8EC"/>
<path d="M301.5 167C301.5 166.188 302.125 165.5 303 165.5C303.812 165.5 304.5 166.188 304.5 167C304.5 167.875 303.812 168.5 303 168.5C302.125 168.5 301.5 167.875 301.5 167Z" fill="#E6E8EC"/>
<path d="M296 151.5C296 152.375 295.312 153 294.5 153C293.625 153 293 152.375 293 151.5C293 150.688 293.625 150 294.5 150C295.312 150 296 150.688 296 151.5Z" fill="#E6E8EC"/>
<path d="M310 151.5C310 150.688 310.625 150 311.5 150C312.312 150 313 150.688 313 151.5C313 152.375 312.312 153 311.5 153C310.625 153 310 152.375 310 151.5Z" fill="#E6E8EC"/>
<path d="M296 168.5C296 169.375 295.312 170 294.5 170C293.625 170 293 169.375 293 168.5C293 167.688 293.625 167 294.5 167C295.312 167 296 167.688 296 168.5Z" fill="#E6E8EC"/>
<path d="M310 168.5C310 167.688 310.625 167 311.5 167C312.312 167 313 167.688 313 168.5C313 169.375 312.312 170 311.5 170C310.625 170 310 169.375 310 168.5Z" fill="#E6E8EC"/>
<path fill-rule="evenodd" clip-rule="evenodd" d="M313 146C315.187 146 317 147.812 317 150V170C317 172.25 315.187 174 313 174H293C290.75 174 289 172.25 289 170V150C289 147.812 290.75 146 293 146H313ZM313 148H293C291.875 148 291 148.938 291 150V170C291 171.125 291.875 172 293 172H313C314.062 172 315 171.125 315 170V150C315 148.938 314.062 148 313 148Z" fill="#E6E8EC"/>
<path fill-rule="evenodd" clip-rule="evenodd" d="M17 144C13.625 144 11 146.688 11 150V150.25C11 151.25 11.75 152 12.75 152H21.187C22.187 152 23 151.25 23 150.25V150C23 146.688 20.312 144 17 144ZM17 146C19.187 146 21 147.812 21 150H13C13 147.812 14.75 146 17 146Z" fill="#E6E8EC"/>
<path fill-rule="evenodd" clip-rule="evenodd" d="M4.68701 150.312C4.31201 149.938 3.625 149.938 3.25 150.312C2.875 150.688 2.875 151.375 3.25 151.75L8.25 156.688C7.437 157.75 7 159.125 7 160.5V161H2C1.437 161 1 161.5 1 162C1 162.562 1.437 163 2 163H7V164C7 165.938 7.5 167.688 8.375 169.188L3.25 174.312C2.875 174.688 2.875 175.375 3.25 175.75C3.625 176.125 4.31201 176.125 4.68701 175.75L9.625 170.812C11.437 172.812 14.062 174 17 174C19.875 174 22.5 172.812 24.312 170.812L29.25 175.75C29.625 176.125 30.312 176.125 30.687 175.75C31.062 175.375 31.062 174.688 30.687 174.312L25.562 169.188C26.437 167.688 27 165.938 27 164V163H32C32.5 163 33 162.562 33 162C33 161.5 32.5 161 32 161H27V160.5C27 159.125 26.5 157.75 25.687 156.688L30.687 151.75C31.062 151.375 31.062 150.688 30.687 150.312C30.312 149.938 29.625 149.938 29.25 150.312L24.312 155.25C23.25 154.5 21.875 154 20.5 154H13.5C12.062 154 10.687 154.5 9.625 155.25L4.68701 150.312ZM16 171.938C12 171.5 9 168.125 9 164V160.5C9 158.062 11 156 13.5 156H20.5C22.937 156 25 158.062 25 160.5V164C25 168.125 21.937 171.5 18 171.938V160C18 159.5 17.5 159 17 159C16.437 159 16 159.5 16 160V171.938Z" fill="#E6E8EC"/>
</svg>
